<svg width="4287" height="1380" xmlns="http://www.w3.org/2000/svg" xmlns:xlink="http://www.w3.org/1999/xlink" xml:space="preserve" overflow="hidden"><g transform="translate(-73 -313)"><path d="M76.5002 1023C76.5002 1005.05 91.0511 990.5 109.001 990.5L886 990.5C903.949 990.5 918.5 1005.05 918.5 1023L918.5 1153C918.5 1170.95 903.949 1185.5 886 1185.5L109.001 1185.5C91.0511 1185.5 76.5002 1170.95 76.5002 1153Z" stroke="#000000" stroke-width="6.875" stroke-miterlimit="8" fill="#FFFFFF" fill-rule="evenodd"/><text fill="#104862" font-family="Arial,Arial_MSFontService,sans-serif" font-weight="700" font-size="55" transform="matrix(1 0 0 1 250.005 1074)">PacBio Raw Reads </text><text fill="#104862" font-family="Arial,Arial_MSFontService,sans-serif" font-weight="700" font-size="55" transform="matrix(1 0 0 1 385.787 1140)">(LR</text><text fill="#104862" font-family="Arial,Arial_MSFontService,sans-serif" font-weight="700" font-size="55" transform="matrix(1 0 0 1 477.453 1140)">-</text><text fill="#104862" font-family="Arial,Arial_MSFontService,sans-serif" font-weight="700" font-size="55" transform="matrix(1 0 0 1 495.787 1140)">seq)</text><path d="M490.5 601.001C490.5 583.051 505.051 568.5 523 568.5L1439 568.5C1456.95 568.5 1471.5 583.051 1471.5 601.001L1471.5 730.999C1471.5 748.949 1456.95 763.5 1439 763.5L523 763.5C505.051 763.5 490.5 748.949 490.5 730.999Z" stroke="#000000" stroke-width="6.875" stroke-miterlimit="8" fill="#FFFFFF" fill-rule="evenodd"/><text fill="#104862" font-family="Arial,Arial_MSFontService,sans-serif" font-weight="700" font-size="55" transform="matrix(1 0 0 1 657.228 686)">High quality Long Reads</text><path d="M1.45842-3.11278 463.84 213.525 460.923 219.751-1.45842 3.11278ZM464.065 202.243 483.134 226.361 452.398 227.145Z" transform="matrix(1 0 0 -1 497.5 989.861)"/><path d="M84.5001 1353.17C84.5001 1335.13 99.1257 1320.5 117.167 1320.5L894.833 1320.5C912.874 1320.5 927.5 1335.13 927.5 1353.17L927.5 1483.83C927.5 1501.87 912.874 1516.5 894.833 1516.5L117.167 1516.5C99.1257 1516.5 84.5001 1501.87 84.5001 1483.83Z" stroke="#000000" stroke-width="6.875" stroke-miterlimit="8" fill="#FFFFFF" fill-rule="evenodd"/><text fill="#104862" font-family="Arial,Arial_MSFontService,sans-serif" font-weight="700" font-size="55" transform="matrix(1 0 0 1 255.026 1405)">Ilumina Raw Reads </text><text fill="#104862" font-family="Arial,Arial_MSFontService,sans-serif" font-weight="700" font-size="55" transform="matrix(1 0 0 1 371.603 1471)">(RNA</text><text fill="#104862" font-family="Arial,Arial_MSFontService,sans-serif" font-weight="700" font-size="55" transform="matrix(1 0 0 1 508.53 1471)">-</text><text fill="#104862" font-family="Arial,Arial_MSFontService,sans-serif" font-weight="700" font-size="55" transform="matrix(1 0 0 1 526.863 1471)">seq)</text><path d="M1153.5 1353.17C1153.5 1335.13 1168.13 1320.5 1186.17 1320.5L1999.83 1320.5C2017.87 1320.5 2032.5 1335.13 2032.5 1353.17L2032.5 1483.83C2032.5 1501.87 2017.87 1516.5 1999.83 1516.5L1186.17 1516.5C1168.13 1516.5 1153.5 1501.87 1153.5 1483.83Z" stroke="#000000" stroke-width="6.875" stroke-miterlimit="8" fill="#FFFFFF" fill-rule="evenodd"/><text fill="#104862" font-family="Arial,Arial_MSFontService,sans-serif" font-weight="700" font-size="55" transform="matrix(1 0 0 1 1354.37 1438)">Clear Short Reads</text><path d="M927.5 1415.06 1130.45 1415.06 1130.45 1421.94 927.5 1421.94ZM1125.87 1404.75 1153.37 1418.5 1125.87 1432.25Z"/><path d="M2028.5 1087.5C2088.7 1087.5 2137.5 1091.57 2137.5 1096.58L2137.5 1346.42C2137.5 1351.43 2088.7 1355.5 2028.5 1355.5" stroke="#000000" stroke-width="4.58333" stroke-miterlimit="8" fill="none" fill-rule="evenodd"/><path d="M2275.5 1159C2275.5 1141.05 2290.05 1126.5 2308 1126.5L2871 1126.5C2888.95 1126.5 2903.5 1141.05 2903.5 1159L2903.5 1289C2903.5 1306.95 2888.95 1321.5 2871 1321.5L2308 1321.5C2290.05 1321.5 2275.5 1306.95 2275.5 1289Z" stroke="#000000" stroke-width="6.875" stroke-miterlimit="8" fill="#FFFFFF" fill-rule="evenodd"/><text fill="#104862" font-family="Arial,Arial_MSFontService,sans-serif" font-weight="700" font-size="55" transform="matrix(1 0 0 1 2488.08 1211)">Isoform </text><text fill="#104862" font-family="Arial,Arial_MSFontService,sans-serif" font-weight="700" font-size="55" transform="matrix(1 0 0 1 2403.58 1277)">Quantification</text><path d="M2137.56 1218.06 2252.75 1220.11 2252.63 1226.98 2137.44 1224.94ZM2248.35 1209.71 2275.6 1223.95 2247.86 1237.21Z"/><path d="M1144.5 1023C1144.5 1005.05 1159.05 990.5 1177 990.5L1992 990.5C2009.95 990.5 2024.5 1005.05 2024.5 1023L2024.5 1153C2024.5 1170.95 2009.95 1185.5 1992 1185.5L1177 1185.5C1159.05 1185.5 1144.5 1170.95 1144.5 1153Z" stroke="#000000" stroke-width="6.875" stroke-miterlimit="8" fill="#FFFFFF" fill-rule="evenodd"/><text fill="#104862" font-family="Arial,Arial_MSFontService,sans-serif" font-weight="700" font-size="55" transform="matrix(1 0 0 1 1298.73 1107)">Master Transcriptome</text><path d="M981.707 760.281 1563.86 978.595 1561.44 985.032 979.293 766.719ZM1563.19 967.329 1584.11 989.86 1553.53 993.078Z"/><text fill="#0B1E31" font-family="Arial,Arial_MSFontService,sans-serif" font-style="italic" font-weight="700" font-size="55" transform="matrix(1 0 0 1 485.552 858)">IsoSeq</text><text fill="#0B1E31" font-family="Arial,Arial_MSFontService,sans-serif" font-style="italic" font-weight="700" font-size="55" transform="matrix(1 0 0 1 1369.89 859)">SQANTI3</text><text fill="#0B1E31" font-family="Arial,Arial_MSFontService,sans-serif" font-style="italic" font-weight="700" font-size="55" transform="matrix(1 0 0 1 1793.9 1249)">Salmon</text><path d="M1512.5 596.167C1512.5 578.126 1527.13 563.5 1545.17 563.5L2358.83 563.5C2376.87 563.5 2391.5 578.126 2391.5 596.167L2391.5 726.832C2391.5 744.874 2376.87 759.5 2358.83 759.5L1545.17 759.5C1527.13 759.5 1512.5 744.874 1512.5 726.832Z" stroke="#000000" stroke-width="6.875" stroke-miterlimit="8" fill="#FFFFFF" fill-rule="evenodd"/><text fill="#104862" font-family="Arial,Arial_MSFontService,sans-serif" font-weight="700" font-size="55" transform="matrix(1 0 0 1 1760.48 681)">Predicted ORF</text><path d="M3574.5 367C3574.5 349.051 3589.05 334.5 3607 334.5L4324 334.5C4341.95 334.5 4356.5 349.051 4356.5 367L4356.5 496.999C4356.5 514.949 4341.95 529.5 4324 529.5L3607 529.5C3589.05 529.5 3574.5 514.949 3574.5 496.999Z" stroke="#000000" stroke-width="6.875" stroke-miterlimit="8" fill="#FFFFFF" fill-rule="evenodd"/><text fill="#104862" font-family="Arial,Arial_MSFontService,sans-serif" font-weight="700" font-size="55" transform="matrix(1 0 0 1 3870.23 419)">Protein </text><text fill="#104862" font-family="Arial,Arial_MSFontService,sans-serif" font-weight="700" font-size="55" transform="matrix(1 0 0 1 3849.03 485)">Domains</text><path d="M3565.5 602.001C3565.5 584.051 3580.05 569.5 3598 569.5L4316 569.5C4333.95 569.5 4348.5 584.051 4348.5 602.001L4348.5 731.999C4348.5 749.949 4333.95 764.5 4316 764.5L3598 764.5C3580.05 764.5 3565.5 749.949 3565.5 731.999Z" stroke="#000000" stroke-width="6.875" stroke-miterlimit="8" fill="#FFFFFF" fill-rule="evenodd"/><text fill="#104862" font-family="Arial,Arial_MSFontService,sans-serif" font-weight="700" font-size="55" transform="matrix(1 0 0 1 3894 653)">NMD</text><text fill="#104862" font-family="Arial,Arial_MSFontService,sans-serif" font-weight="700" font-size="55" transform="matrix(1 0 0 1 3872.53 719)">Status</text><path d="M3565.5 831.167C3565.5 813.126 3580.13 798.5 3598.17 798.5L4315.83 798.5C4333.87 798.5 4348.5 813.126 4348.5 831.167L4348.5 961.833C4348.5 979.874 4333.87 994.5 4315.83 994.5L3598.17 994.5C3580.13 994.5 3565.5 979.874 3565.5 961.833Z" stroke="#000000" stroke-width="6.875" stroke-miterlimit="8" fill="#FFFFFF" fill-rule="evenodd"/><text fill="#104862" font-family="Arial,Arial_MSFontService,sans-serif" font-weight="700" font-size="55" transform="matrix(1 0 0 1 3656.05 916)">Transmembrane status</text><text fill="#0B1E31" font-family="Arial,Arial_MSFontService,sans-serif" font-style="italic" font-weight="700" font-size="55" transform="matrix(1 0 0 1 3129.26 383)">PfamScan</text><text fill="#0B1E31" font-family="Arial,Arial_MSFontService,sans-serif" font-style="italic" font-weight="700" font-size="55" transform="matrix(1 0 0 1 3164.14 835)">TMHMM</text><text fill="#0B1E31" font-family="Arial,Arial_MSFontService,sans-serif" font-style="italic" font-weight="700" font-size="55" transform="matrix(1 0 0 1 3193.42 618)">factR</text><path d="M1.82814-2.91107 350.004 215.742 346.348 221.564-1.82814 2.91107ZM351.607 204.571 367.583 230.84 336.982 227.86Z" transform="matrix(1 0 0 -1 1584.5 990.34)"/><text fill="#0B1E31" font-family="Arial,Arial_MSFontService,sans-serif" font-style="italic" font-weight="700" font-size="55" transform="matrix(1 0 0 1 1811.86 892)">CPAT</text><path d="M3565.5 1076C3565.5 1058.05 3580.05 1043.5 3598 1043.5L4316 1043.5C4333.95 1043.5 4348.5 1058.05 4348.5 1076L4348.5 1206C4348.5 1223.95 4333.95 1238.5 4316 1238.5L3598 1238.5C3580.05 1238.5 3565.5 1223.95 3565.5 1206Z" stroke="#000000" stroke-width="6.875" stroke-miterlimit="8" fill="#FFFFFF" fill-rule="evenodd"/><text fill="#104862" font-family="Arial,Arial_MSFontService,sans-serif" font-weight="700" font-size="55" transform="matrix(1 0 0 1 3674.87 1161)">Subcellar localization</text><path d="M3574.5 1296C3574.5 1278.05 3589.05 1263.5 3607 1263.5L4324 1263.5C4341.95 1263.5 4356.5 1278.05 4356.5 1296L4356.5 1426C4356.5 1443.95 4341.95 1458.5 4324 1458.5L3607 1458.5C3589.05 1458.5 3574.5 1443.95 3574.5 1426Z" stroke="#000000" stroke-width="6.875" stroke-miterlimit="8" fill="#FFFFFF" fill-rule="evenodd"/><text fill="#104862" font-family="Arial,Arial_MSFontService,sans-serif" font-weight="700" font-size="55" transform="matrix(1 0 0 1 3732.73 1348)">Post</text><text fill="#104862" font-family="Arial,Arial_MSFontService,sans-serif" font-weight="700" font-size="55" transform="matrix(1 0 0 1 3851.9 1348)">-</text><text fill="#104862" font-family="Arial,Arial_MSFontService,sans-serif" font-weight="700" font-size="55" transform="matrix(1 0 0 1 3870.23 1348)">translational </text><text fill="#104862" font-family="Arial,Arial_MSFontService,sans-serif" font-weight="700" font-size="55" transform="matrix(1 0 0 1 3801.18 1414)">modification</text><text fill="#0B1E31" font-family="Arial,Arial_MSFontService,sans-serif" font-style="italic" font-weight="700" font-size="55" transform="matrix(1 0 0 1 3157.89 1080)">DeepLoc</text><text fill="#0B1E31" font-family="Arial,Arial_MSFontService,sans-serif" font-style="italic" font-weight="700" font-size="55" transform="matrix(1 0 0 1 3126.53 1310)">MusiteDeep</text><path d="M3567.5 1526.17C3567.5 1508.13 3582.13 1493.5 3600.17 1493.5L4316.83 1493.5C4334.87 1493.5 4349.5 1508.13 4349.5 1526.17L4349.5 1656.83C4349.5 1674.87 4334.87 1689.5 4316.83 1689.5L3600.17 1689.5C3582.13 1689.5 3567.5 1674.87 3567.5 1656.83Z" stroke="#000000" stroke-width="6.875" stroke-miterlimit="8" fill="#FFFFFF" fill-rule="evenodd"/><text fill="#104862" font-family="Arial,Arial_MSFontService,sans-serif" font-weight="700" font-size="55" transform="matrix(1 0 0 1 3731.86 1611)">Druggblity status</text><text fill="#0B1E31" font-family="Arial,Arial_MSFontService,sans-serif" font-style="italic" font-weight="700" font-size="55" transform="matrix(1 0 0 1 3159.62 1542)">SPIDER</text><path d="M2391.5 659.208 2986.31 659.208 2986.31 1591.15 2984.02 1588.86 3544.24 1588.86 3544.24 1593.44 2981.73 1593.44 2981.73 661.5 2984.02 663.792 2391.5 663.792ZM3539.65 1577.4 3567.15 1591.15 3539.65 1604.9Z"/><path d="M0-2.29167 593.573-2.29167 593.573 229.553 591.281 227.261 1159.62 227.261 1159.62 231.844 588.989 231.844 588.989 0 591.281 2.29167 0 2.29167ZM1155.04 215.803 1182.54 229.553 1155.04 243.303Z" transform="matrix(1 0 0 -1 2391.5 662.051)"/><path d="M0.00197144-2.29167 563.984-1.80649 563.98 2.77684-0.00197144 2.29167ZM559.411-13.2688 586.899 0.504888 559.388 14.2312Z" transform="matrix(1 0 0 -1 2978.5 658.005)"/><path d="M2987.5 894.208 3543.02 894.209 3543.02 898.792 2987.5 898.792ZM3538.44 882.75 3565.94 896.5 3538.44 910.25Z"/><path d="M2978.5 1139.21 3542.48 1139.21 3542.48 1143.79 2978.5 1143.79ZM3537.9 1127.75 3565.4 1141.5 3537.9 1155.25Z"/><path d="M2978.5 1353.21 3542.48 1353.21 3542.48 1357.79 2978.5 1357.79ZM3537.9 1341.75 3565.4 1355.5 3537.9 1369.25Z"/></g></svg>